HIERARCHY
ROOT Pelvis
{
	OFFSET -0.217368 -24.078917 2.858379
	CHANNELS 6 Xposition Yposition Zposition Zrotation Yrotation Xrotation 
	JOINT Left_hip
	{
		OFFSET 5.858135 -8.228005 -1.766408
		CHANNELS 3 Zrotation Yrotation Xrotation
		JOINT Left_knee
		{
			OFFSET 4.345143 -38.646942 0.803700
			CHANNELS 3 Zrotation Yrotation Xrotation
			JOINT Left_ankle
			{
				OFFSET -1.479033 -42.687447 -3.742800
				CHANNELS 3 Zrotation Yrotation Xrotation
				JOINT Left_foot
				{
					OFFSET 4.105436 -6.028605 12.204244
					CHANNELS 3 Zrotation Yrotation Xrotation
					End Site
					{
						OFFSET 0.000000 0.000000 0.000000
					}
				}
			}
		}
	}
	JOINT Right_hip
	{
		OFFSET -6.030973 -9.051328 -1.354253
		CHANNELS 3 Zrotation Yrotation Xrotation
		JOINT Right_knee
		{
			OFFSET -4.325663 -38.368790 -0.484304
			CHANNELS 3 Zrotation Yrotation Xrotation
			JOINT Right_ankle
			{
				OFFSET 1.905555 -42.004566 -3.456167
				CHANNELS 3 Zrotation Yrotation Xrotation
				JOINT Right_foot
				{
					OFFSET -3.483987 -6.210554 13.032330
					CHANNELS 3 Zrotation Yrotation Xrotation
					End Site
					{
						OFFSET 0.000000 0.000000 0.000000
					}
				}
			}
		}
	}
	JOINT Spine1
	{
		OFFSET 0.443945 12.440353 -3.838522
		CHANNELS 3 Zrotation Yrotation Xrotation
		JOINT Spine2
		{
			OFFSET 0.448844 13.795640 2.682033
			CHANNELS 3 Zrotation Yrotation Xrotation
			JOINT Spine3
			{
				OFFSET -0.226460 5.603239 0.285504
				CHANNELS 3 Zrotation Yrotation Xrotation
				JOINT Neck
				{
					OFFSET -1.339018 21.163553 -3.346758
					CHANNELS 3 Zrotation Yrotation Xrotation
					JOINT Head
					{
						OFFSET 1.011321 8.893734 5.040987
						CHANNELS 3 Zrotation Yrotation Xrotation
						End Site
						{
							OFFSET 0.000000 0.000000 0.000000
						}
					}
				}
				JOINT Left_collar
				{
					OFFSET 7.170247 11.399971 -1.889817
					CHANNELS 3 Zrotation Yrotation Xrotation
					JOINT Left_shoulder
					{
						OFFSET 12.292140 4.520507 -1.904600
						CHANNELS 3 Zrotation Yrotation Xrotation
						JOINT Left_elbow
						{
							OFFSET 25.533188 -1.564902 -2.294648
							CHANNELS 3 Zrotation Yrotation Xrotation
							JOINT Left_wrist
							{
								OFFSET 26.570929 1.269810 -0.737473
								CHANNELS 3 Zrotation Yrotation Xrotation
								JOINT Left_palm
								{
									OFFSET 8.669054 -1.063602 -1.559429
									CHANNELS 3 Zrotation Yrotation Xrotation
									End Site
									{
										OFFSET 0.000000 0.000000 0.000000
									}
								}
							}
						}
					}
				}
				JOINT Right_collar
				{
					OFFSET -8.295364 11.247234 -2.370738
					CHANNELS 3 Zrotation Yrotation Xrotation
					JOINT Right_shoulder
					{
						OFFSET -11.322830 4.685326 -0.847207
						CHANNELS 3 Zrotation Yrotation Xrotation
						JOINT Right_elbow
						{
							OFFSET -26.012751 -1.436928 -3.126872
							CHANNELS 3 Zrotation Yrotation Xrotation
							JOINT Right_wrist
							{
								OFFSET -26.910841 0.679372 -0.602677
								CHANNELS 3 Zrotation Yrotation Xrotation
								JOINT Right_palm
								{
									OFFSET -8.875370 -0.865157 -1.010708
									CHANNELS 3 Zrotation Yrotation Xrotation
									End Site
									{
										OFFSET 0.000000 0.000000 0.000000
									}
								}
							}
						}
					}
				}
			}
		}
	}
}
MOTION
Frames: 7
Frame Time: 0.016667
-0.217368 73.477325 2.858379 0.614449 -5.302779 -4.676645 0.228860 0.642738 7.204941 -1.452431 0.170207 -0.506131 -0.727465 3.789989 12.997409 0.000000 0.000000 0.000000 -2.746148 -0.283220 4.562233 0.063503 0.106980 2.900247 3.053050 1.551499 10.654709 0.000000 0.000000 0.000000 5.741168 -0.541506 5.428964 -5.535726 2.057859 -20.710587 -1.725940 8.078859 29.756480 10.000006 -6.609203 -6.293217 0.000000 0.000000 0.000000 -9.849778 -8.391657 2.672184 -63.101346 -9.001864 -2.308625 2.853034 -27.150244 0.324089 0.000000 0.000000 0.000000 0.000000 0.000000 0.000000 20.411008 -2.303529 -3.350144 64.482435 3.884741 -3.735064 -3.552101 28.163006 0.065142 0.000000 0.000000 0.000000 0.000000 0.000000 0.000000 
-0.299651 73.571297 2.872068 0.682278 -5.142420 -4.938274 0.361802 0.749165 8.516549 -1.400566 0.195164 -1.904943 -1.478133 2.958027 14.090135 0.000000 0.000000 0.000000 -2.681108 -0.249900 4.074492 0.062991 0.146885 3.911752 3.507107 2.554536 10.491745 0.000000 0.000000 0.000000 5.621680 -0.470374 4.714568 -5.092316 1.943354 -20.423027 -1.831684 7.324110 31.319295 9.568325 -6.451649 -5.539003 0.000000 0.000000 0.000000 -10.526495 -7.387033 2.210262 -62.909453 -8.805325 -2.410208 3.375018 -28.020287 0.206552 0.000000 0.000000 0.000000 0.000000 0.000000 0.000000 21.200450 -2.393684 -3.508909 63.536224 4.392451 -3.394476 -5.027075 28.611242 -0.280819 0.000000 0.000000 0.000000 0.000000 0.000000 0.000000 
-0.402991 73.650749 2.952398 0.488645 -4.468354 -4.158843 0.120966 0.700321 7.748914 -0.645570 0.140297 -2.444496 -1.153653 3.649100 14.615068 0.000000 0.000000 0.000000 -2.033531 -0.215708 3.195750 -0.105864 0.157454 3.588657 2.854547 0.786669 11.428451 0.000000 0.000000 0.000000 4.548721 -0.338766 3.743881 -3.672505 1.560559 -19.517814 -1.637924 6.138198 30.657514 8.629042 -5.857529 -5.082659 0.000000 0.000000 0.000000 -13.362776 -7.278940 2.078203 -60.768646 -8.031425 -2.737954 2.847029 -27.710527 0.332210 0.000000 0.000000 0.000000 0.000000 0.000000 0.000000 22.168661 -0.993951 -2.846785 61.942242 3.984395 -3.516484 -5.443278 28.512226 -0.376591 0.000000 0.000000 0.000000 0.000000 0.000000 0.000000 
-0.588225 73.897522 3.027472 0.601735 -5.048021 -4.630111 -0.416541 0.830830 8.660932 -0.730725 0.181673 -3.672875 -1.621854 3.081355 15.104290 0.000000 0.000000 0.000000 -1.533384 -0.343942 4.377010 -0.638948 0.197810 2.860080 3.371865 1.857306 11.343074 0.000000 0.000000 0.000000 5.377198 -0.366698 3.674255 -4.232608 1.722283 -19.352257 -1.895986 6.487866 31.359471 8.966801 -6.628507 -2.434896 0.000000 0.000000 0.000000 -11.553705 -7.179579 2.086292 -62.618881 -8.247735 -2.704492 4.043183 -27.082465 0.042034 0.000000 0.000000 0.000000 0.000000 0.000000 0.000000 21.243876 -1.685289 -3.119128 63.487868 3.579604 -3.836671 -6.089428 30.151573 -0.567504 0.000000 0.000000 0.000000 0.000000 0.000000 0.000000 
-0.807353 73.940552 3.092953 0.685622 -5.704054 -4.335587 -0.623044 0.777776 7.929925 -1.237362 0.201798 -2.847096 -0.742663 4.233971 14.429499 0.000000 0.000000 0.000000 -1.453679 -0.305767 3.884795 -0.481940 0.197233 3.314398 3.159714 1.725697 10.739935 0.000000 0.000000 0.000000 5.573935 -0.301472 2.857806 -4.183916 1.712756 -19.050927 -2.120615 6.609442 31.666627 8.797995 -6.703958 -1.412712 0.000000 0.000000 0.000000 -11.522219 -7.027557 2.017685 -62.301577 -7.378909 -3.161890 3.745705 -27.600839 0.114208 0.000000 0.000000 0.000000 0.000000 0.000000 0.000000 21.054626 -1.426595 -2.950247 63.380480 3.975605 -3.613032 -5.390286 29.817208 -0.387435 0.000000 0.000000 0.000000 0.000000 0.000000 0.000000 
-1.078187 74.109901 3.075333 0.947690 -6.447227 -4.933967 -0.736516 0.828098 8.346034 -1.524222 0.206632 -1.903870 -0.079847 5.160066 14.055982 0.000000 0.000000 0.000000 -1.665448 -0.361525 4.677239 -0.471962 0.187067 3.114688 3.114146 1.531470 10.950611 0.000000 0.000000 0.000000 5.724058 -0.372851 3.587391 -4.144159 1.701165 -19.058863 -2.412575 7.317445 31.806185 8.765185 -6.906143 -0.289601 0.000000 0.000000 0.000000 -10.677560 -6.687147 1.892053 -62.976593 -7.422115 -3.174361 4.762179 -27.453811 -0.130020 0.000000 0.000000 0.000000 0.000000 0.000000 0.000000 20.447560 -1.262048 -2.782298 64.344181 4.688896 -3.277470 -6.583615 29.264033 -0.664746 0.000000 0.000000 0.000000 0.000000 0.000000 0.000000 
-1.368768 74.234375 3.006516 1.230105 -6.786416 -4.436761 -1.325969 0.761512 7.216775 -1.258044 0.165860 -1.206257 -0.026390 5.200796 13.911982 0.000000 0.000000 0.000000 -1.980812 -0.327507 4.511918 -0.147948 0.128994 2.757713 2.833548 0.751427 11.414526 0.000000 0.000000 0.000000 5.693726 -0.403474 3.938157 -4.119713 1.693627 -19.093319 -2.481003 7.466788 31.314178 8.586377 -6.570390 -1.253851 0.000000 0.000000 0.000000 -10.990288 -6.510150 1.801065 -62.689653 -7.033762 -3.371040 5.061344 -27.341185 -0.200781 0.000000 0.000000 0.000000 0.000000 0.000000 0.000000 20.667369 -1.122974 -2.732935 64.345392 4.325212 -3.480472 -7.014449 29.271173 -0.768696 0.000000 0.000000 0.000000 0.000000 0.000000 0.000000 
